<svg xmlns="http://www.w3.org/2000/svg" viewBox="0 0 64 64" width="64" height="64" fill="none" stroke="black" stroke-width="2" stroke-linecap="round" stroke-linejoin="round">
    <!-- Teste dei membri del team -->
    <circle cx="20" cy="22" r="6" />
    <circle cx="44" cy="22" r="6" />
    <circle cx="32" cy="38" r="6" />
  
    <!-- Corpi dei membri del team -->
    <path d="M16 28c0 5 4 10 10 10s10-5 10-10" />
    <path d="M40 28c0 5-4 10-10 10s-10-5-10-10" />
    <path d="M22 44c0 4 4 8 10 8s10-4 10-8" />
  
    <!-- Connessioni tra i membri del team -->
    <line x1="26" y1="32" x2="38" y2="32" />
    <line x1="32" y1="28" x2="32" y2="38" />
  
    <!-- Icona stilizzata delle mani che si uniscono sotto -->
    <path d="M20 54c2-3 4-4 12-4s10 1 12 4" />
    <path d="M16 54h32" />
  </svg>